HIERARCHY
ROOT Hips
{
 OFFSET 0.000000 0.000000 0.000000
 CHANNELS 6 Xposition Yposition Zposition Yrotation Xrotation Zrotation
 JOINT Chest
 {
  OFFSET 0.000000 9.581000 -0.001100
  CHANNELS 3 Yrotation Xrotation Zrotation
  JOINT Chest2
  {
   OFFSET 0.000000 9.561100 0.002200
   CHANNELS 3 Yrotation Xrotation Zrotation
   JOINT Chest3
   {
    OFFSET 0.000000 9.521100 0.000000
    CHANNELS 3 Yrotation Xrotation Zrotation
    JOINT Chest4
    {
     OFFSET 0.000000 9.511400 0.000000
     CHANNELS 3 Yrotation Xrotation Zrotation
     JOINT Neck
     {
      OFFSET 0.000000 14.375100 0.000000
      CHANNELS 3 Yrotation Xrotation Zrotation
      JOINT Head
      {
       OFFSET 0.000000 8.901200 0.004600
       CHANNELS 3 Yrotation Xrotation Zrotation
       End Site
       {
        OFFSET 0.000000 16.962200 0.002400
       }
      }
     }
     JOINT RightCollar
     {
      OFFSET -2.920100 9.518800 0.000000
      CHANNELS 3 Yrotation Xrotation Zrotation
      JOINT RightShoulder
      {
       OFFSET -13.664500 0.000000 0.000000
       CHANNELS 3 Yrotation Xrotation Zrotation
       JOINT RightElbow
       {
        OFFSET 0.000000 -29.999200 0.000000
        CHANNELS 3 Yrotation Xrotation Zrotation
        JOINT RightWrist
        {
         OFFSET 0.000000 -24.253600 0.000000
         CHANNELS 3 Yrotation Xrotation Zrotation
         End Site
         {
          OFFSET 0.000000 -17.918900 0.000000
         }
        }
       }
      }
     }
     JOINT LeftCollar
     {
      OFFSET 2.920100 9.518800 0.000000
      CHANNELS 3 Yrotation Xrotation Zrotation
      JOINT LeftShoulder
      {
       OFFSET 13.664500 0.000000 0.000000
       CHANNELS 3 Yrotation Xrotation Zrotation
       JOINT LeftElbow
       {
        OFFSET 0.000000 -29.999200 0.000000
        CHANNELS 3 Yrotation Xrotation Zrotation
        JOINT LeftWrist
        {
         OFFSET 0.000000 -24.253600 0.000000
         CHANNELS 3 Yrotation Xrotation Zrotation
         End Site
         {
          OFFSET 0.000000 -17.918900 0.000000
         }
        }
       }
      }
     }
    }
   }
  }
 }
 JOINT RightHip
 {
  OFFSET -7.797300 0.005300 0.000500
  CHANNELS 3 Yrotation Xrotation Zrotation
  JOINT RightKnee
  {
   OFFSET 0.000000 -40.663400 -0.000500
   CHANNELS 3 Yrotation Xrotation Zrotation
   JOINT RightAnkle
   {
    OFFSET 0.000000 -39.523700 -0.000900
    CHANNELS 3 Yrotation Xrotation Zrotation
    JOINT RightToe
    {
     OFFSET 0.000000 -6.418000 14.485300
     CHANNELS 3 Yrotation Xrotation Zrotation
     End Site
     {
      OFFSET 0.000000 -1.465200 6.326400
     }
    }
   }
  }
 }
 JOINT LeftHip
 {
  OFFSET 7.797300 0.005300 0.000500
  CHANNELS 3 Yrotation Xrotation Zrotation
  JOINT LeftKnee
  {
   OFFSET 0.000000 -40.663400 -0.000500
   CHANNELS 3 Yrotation Xrotation Zrotation
   JOINT LeftAnkle
   {
    OFFSET 0.000000 -39.523700 -0.000900
    CHANNELS 3 Yrotation Xrotation Zrotation
    JOINT LeftToe
    {
     OFFSET 0.000000 -6.418000 14.485300
     CHANNELS 3 Yrotation Xrotation Zrotation
     End Site
     {
      OFFSET 0.000000 -1.465200 6.326400
     }
    }
   }
  }
 }
}
MOTION
Frames: 15
Frame Time: 0.008333
0.000000 86.422400 0.000000 0.000000 -5.767877 0.000000 0.000000 11.653817 0.000000 0.000000 -5.885947 0.000000 0.000000 -0.000000 0.000000 0.000000 -0.000000 0.000000 0.000000 12.528835 0.000000 0.000000 0.711642 0.000000 0.000000 -0.000000 0.000000 0.000000 0.000000 -90.000000 0.000000 -2.309062 0.000000 0.000000 2.309062 0.000000 0.000000 -0.000000 0.000000 0.000000 -0.000000 90.000000 0.000000 -2.309062 0.000000 0.000000 2.309062 0.000000 0.000000 8.520406 0.000000 0.000000 1.905762 0.000000 -0.000000 -4.658285 0.000000 0.000000 -0.000000 0.000000 0.000000 8.520406 0.000000 0.000000 1.905762 0.000000 -0.000000 -4.658285 0.000000 0.000000 -0.000000 0.000000
-22.559553 126.363654 60.978707 179.107088 -27.014017 -2.551140 -1.385319 21.800511 1.103667 -0.211203 2.971083 0.178953 -0.337692 4.795154 0.267023 -1.193631 18.543391 0.982305 2.567592 13.785242 -3.101373 3.439900 -11.125090 -3.852048 -3.435809 -4.129647 -0.881910 -8.248025 -6.383737 -1.828898 -90.513592 -23.431277 107.886236 -26.830108 -4.860048 -4.517195 -6.455290 -3.733205 0.696663 7.891561 -7.232476 6.543008 75.020461 -32.938356 -105.794781 24.515022 -18.548073 -2.527310 -8.998728 -51.648390 5.159331 -160.819930 73.824573 -155.119038 9.871350 -22.939238 -8.811634 0.004430 -0.003493 0.001963 -8.962854 -54.462694 -5.758448 34.802968 61.756653 26.691458 -0.068005 40.358449 2.872918 0.004966 0.005527 0.002201
-22.560456 126.363630 60.980258 179.115823 -27.016677 -2.559612 -1.387570 21.771332 1.091122 -0.210064 2.964076 0.176971 -0.340606 4.773890 0.253662 -1.191981 18.489608 0.950969 2.542014 13.834450 -2.998094 3.386578 -11.111184 -3.753484 -3.420495 -4.050810 -0.858974 -8.248386 -6.431822 -1.857889 -90.603682 -23.708880 107.965913 -26.730338 -5.025488 -4.767455 -6.446445 -3.641878 0.705281 7.978657 -7.130837 6.663194 75.156808 -32.573947 -106.538503 24.309051 -18.469864 -2.351799 -8.976757 -51.643514 5.134272 -160.850331 73.829187 -155.128042 9.864274 -22.939959 -8.808506 0.001867 -0.001314 0.000827 -8.977211 -54.475249 -5.773417 34.865877 61.722382 26.774057 -0.073877 40.422742 2.897503 0.009490 -0.003572 0.004204
-22.559483 126.364951 60.979791 179.125086 -27.035584 -2.581321 -1.389890 21.758887 1.086245 -0.209630 2.957556 0.174904 -0.339730 4.768425 0.246165 -1.195239 18.460144 0.928839 2.509620 13.863436 -2.911495 3.327007 -11.100601 -3.660837 -3.406206 -3.997333 -0.850315 -8.264683 -6.461269 -1.873048 -90.764928 -24.225972 108.155043 -26.591203 -5.341569 -5.199525 -6.441236 -3.606766 0.636330 8.078883 -7.008160 6.829336 75.358532 -32.268278 -107.385089 24.028230 -18.287974 -2.168754 -8.984998 -51.622551 5.143662 -160.861067 73.831167 -155.131383 9.863915 -22.934612 -8.799657 0.000032 -0.004170 0.000014 -8.993653 -54.484627 -5.799728 34.984594 61.703590 26.927313 -0.069621 40.472223 2.924016 -0.000817 -0.008170 -0.000362
-22.560342 126.365421 60.981104 179.123333 -27.044188 -2.588702 -1.387028 21.736664 1.065619 -0.209154 2.952429 0.173010 -0.337271 4.763697 0.242493 -1.196508 18.448415 0.913762 2.457208 13.874574 -2.828823 3.249739 -11.092361 -3.558038 -3.401915 -3.946163 -0.842819 -8.283342 -6.487678 -1.886923 -91.031720 -25.042885 108.463389 -26.395705 -5.839652 -5.849152 -6.444672 -3.569825 0.614469 8.195566 -6.894251 6.924372 75.671749 -32.104370 -108.325485 23.679705 -17.971841 -1.974330 -8.977149 -51.616351 5.145421 -160.876398 73.838390 -155.141108 9.856087 -22.925033 -8.787452 -0.000906 -0.005440 -0.000401 -8.987008 -54.499488 -5.830476 35.075353 61.685146 27.052465 -0.070585 40.544109 2.951721 0.000576 -0.002276 0.000255
-22.561875 126.365788 60.982832 179.126940 -27.050750 -2.595451 -1.384918 21.715255 1.045465 -0.208814 2.947834 0.170419 -0.340628 4.757511 0.236567 -1.197661 18.436735 0.896461 2.391619 13.883441 -2.741560 3.157273 -11.086784 -3.447171 -3.398230 -3.888343 -0.836690 -8.308989 -6.509640 -1.903267 -91.433331 -26.215592 108.911045 -26.104101 -6.543708 -6.757134 -6.443625 -3.536201 0.595626 8.329083 -6.764762 7.006331 76.146347 -32.147588 -109.370641 23.244472 -17.488291 -1.778991 -8.978556 -51.610573 5.147115 -160.888001 73.840842 -155.146783 9.857248 -22.922656 -8.785831 0.001365 -0.006557 0.000605 -8.988827 -54.503499 -5.842288 35.116491 61.668761 27.119150 -0.095713 40.591499 2.939183 0.006576 0.000524 0.002914
-22.563195 126.366517 60.984164 179.128096 -27.060967 -2.602654 -1.386032 21.673619 0.993647 -0.208097 2.968083 0.197919 -0.336217 4.752191 0.229197 -1.196647 18.425665 0.879701 2.313490 13.889460 -2.650757 3.050536 -11.084526 -3.329678 -3.396376 -3.825533 -0.828745 -8.342579 -6.523546 -1.924158 -92.014451 -27.805144 109.542943 -25.669824 -7.431598 -7.934260 -6.437308 -3.492954 0.610055 8.484408 -6.640350 7.040840 76.806971 -32.424459 -110.496791 22.674410 -16.824009 -1.613185 -8.978780 -51.600530 5.150166 -160.895668 73.843161 -155.147061 9.862841 -22.920229 -8.788412 0.003473 -0.008045 0.001539 -8.988866 -54.504584 -5.852112 35.133900 61.661537 27.165410 -0.111477 40.638895 2.923712 0.009883 0.002728 0.004379
-22.562610 126.368259 60.984001 179.135589 -27.082315 -2.623689 -1.383212 21.669034 0.982724 -0.208476 2.965146 0.194532 -0.333939 4.763702 0.243486 -1.195381 18.420447 0.871800 2.213865 13.869477 -2.584247 2.930978 -11.084922 -3.207806 -3.400898 -3.784537 -0.842783 -8.373079 -6.527884 -1.945858 -92.832256 -29.858693 110.393134 -25.069322 -8.399366 -9.324888 -6.433208 -3.476986 0.603763 8.663831 -6.531323 7.061628 77.640668 -32.936078 -111.663444 21.957824 -16.001413 -1.552767 -9.001151 -51.571999 5.176145 -160.877727 73.847033 -155.126646 9.865408 -22.919584 -8.787674 0.003525 -0.009049 0.001561 -9.001193 -54.492906 -5.852985 35.124207 61.663250 27.193474 -0.113182 40.683131 2.907614 0.007680 0.004551 0.003403
-22.563339 126.369508 60.984857 179.142022 -27.097655 -2.635477 -1.381738 21.655198 0.966119 -0.206014 2.929765 0.159668 -0.331866 4.779192 0.262921 -1.187306 18.447981 0.888514 2.107726 13.845521 -2.512576 2.803021 -11.084687 -3.084111 -3.406690 -3.741871 -0.854721 -8.392693 -6.524708 -1.966239 -93.936281 -32.378093 111.465800 -24.315927 -9.284390 -10.788108 -6.390780 -3.484924 0.542068 8.829199 -6.438521 7.136674 78.601473 -33.656847 -112.835497 21.155132 -15.114013 -1.694551 -9.020724 -51.549214 5.190971 -160.860291 73.852678 -155.108071 9.870845 -22.919862 -8.792469 0.003385 -0.007922 0.001499 -9.008590 -54.485640 -5.854707 35.078421 61.673413 27.182541 -0.110222 40.723939 2.885099 0.007674 0.006301 0.003401
-22.564423 126.370233 60.986881 179.145580 -27.106620 -2.642261 -1.376062 21.631261 0.951720 -0.209752 2.944943 0.168286 -0.326755 4.741124 0.241295 -1.190212 18.453095 0.876500 2.012740 13.848858 -2.413208 2.669567 -11.077942 -2.960825 -3.406480 -3.665963 -0.842225 -8.396496 -6.520282 -1.989418 -95.367707 -35.275310 112.753748 -23.484461 -9.952341 -12.132458 -6.335886 -3.438295 0.536279 9.026012 -6.401096 7.180604 79.628282 -34.513330 -114.009474 20.362981 -14.276035 -2.091966 -9.034710 -51.533840 5.201369 -160.816135 73.856307 -155.065129 9.884667 -22.918282 -8.797218 0.002416 -0.005842 0.001070 -9.032216 -54.483030 -5.837922 35.017923 61.689081 27.145966 -0.107227 40.758026 2.855001 0.008965 0.008384 0.003973
-22.565094 126.370828 60.989329 179.150662 -27.114507 -2.649973 -1.373607 21.621964 0.949275 -0.211874 2.943681 0.165574 -0.323349 4.735620 0.242017 -1.182346 18.369872 0.833219 1.912767 13.916250 -2.296905 2.530401 -11.056632 -2.841494 -3.420215 -3.542907 -0.803252 -8.379711 -6.505473 -2.029865 -97.115021 -38.338991 114.263593 -22.690384 -10.373511 -13.217924 -6.291483 -3.321076 0.552091 9.244567 -6.410323 7.226808 80.666124 -35.381761 -115.192089 19.652470 -13.530342 -2.739372 -9.046198 -51.522297 5.209282 -160.794836 73.855967 -155.041552 9.895535 -22.917726 -8.803327 0.002255 -0.006098 0.000999 -9.070929 -54.480934 -5.804219 34.949755 61.708804 27.095530 -0.110742 40.787788 2.816291 0.012178 0.008445 0.005396
-22.564240 126.372821 60.989357 179.167681 -27.140503 -2.669401 -1.376208 21.630177 0.955755 -0.204214 2.919275 0.156613 -0.328696 4.752857 0.249868 -1.155907 18.313936 0.819674 1.792455 13.977095 -2.212021 2.385408 -11.014280 -2.730632 -3.452103 -3.445254 -0.785230 -8.351641 -6.492852 -2.072305 -99.069133 -41.303439 115.978453 -21.995384 -10.602552 -14.018021 -6.257168 -3.226148 0.548568 9.460512 -6.454575 7.289444 81.647130 -36.133191 -116.364612 19.054570 -12.876593 -3.603143 -9.080704 -51.482708 5.225830 -160.778894 73.864623 -155.025045 9.903544 -22.918531 -8.812818 0.001489 -0.005504 0.000660 -9.139142 -54.458951 -5.746878 34.889540 61.728925 27.039143 -0.118431 40.815569 2.779675 0.014603 0.004338 0.006470
-22.565236 126.373940 60.990931 179.176373 -27.158113 -2.671438 -1.367968 21.615101 0.946446 -0.201865 2.912841 0.156038 -0.325106 4.742930 0.249057 -1.154129 18.330642 0.828804 1.683800 14.008776 -2.159842 2.237343 -10.948726 -2.632028 -3.466131 -3.382157 -0.786992 -8.330048 -6.499384 -2.109562 -101.078924 -44.000318 117.825813 -21.397313 -10.730718 -14.575117 -6.205411 -3.180989 0.531648 9.668198 -6.524072 7.367274 82.497837 -36.687907 -117.493497 18.604857 -12.318440 -4.618609 -9.077982 -51.453130 5.207869 -160.784601 73.873521 -155.025257 9.914448 -22.925912 -8.819383 -0.001409 -0.000175 -0.000624 -9.191478 -54.441601 -5.707798 34.861083 61.736738 26.998963 -0.125199 40.832039 2.759738 0.011634 0.003447 0.005155
-22.566255 126.374726 60.993192 179.183162 -27.173398 -2.670297 -1.352549 21.593452 0.943247 -0.199428 2.907184 0.155375 -0.320825 4.734093 0.248066 -1.129227 18.287076 0.831827 1.548800 14.111396 -2.104345 2.090797 -10.862360 -2.549413 -3.508343 -3.256933 -0.775100 -8.332596 -6.513059 -2.157847 -103.033309 -46.378375 119.723817 -20.911193 -10.820725 -14.920334 -6.191053 -3.075351 0.519598 9.874561 -6.614765 7.462143 83.158034 -37.018953 -118.548391 18.346430 -11.856327 -5.701634 -9.069851 -51.432640 5.185913 -160.797306 73.873036 -155.022491 9.924855 -22.931164 -8.836744 0.002823 0.000790 0.001251 -9.242053 -54.425522 -5.670397 34.867024 61.737864 26.978909 -0.130015 40.839602 2.757073 0.004740 0.003188 0.002100
-22.567127 126.375714 60.995080 179.186399 -27.193612 -2.667012 -1.314857 21.518987 0.953020 -0.194825 2.891442 0.154731 -0.337889 4.783212 0.245237 -1.108580 18.236707 0.837860 1.415903 14.229943 -2.068143 1.951476 -10.762111 -2.486529 -3.551399 -3.121446 -0.760934 -8.368009 -6.534077 -2.236846 -104.877259 -48.397925 121.603653 -20.582885 -10.886029 -15.058171 -6.207822 -2.960428 0.509913 10.117086 -6.727558 7.569522 83.581695 -37.127876 -119.494024 18.266092 -11.519126 -6.755259 -9.054718 -51.410912 5.161121 -160.820962 73.871658 -155.036476 9.929818 -22.936191 -8.842885 0.002150 0.000030 0.000953 -9.289549 -54.407074 -5.642795 34.880706 61.740433 26.984741 -0.144555 40.840752 2.723708 0.004713 0.002265 0.002088
